<svg width="426" height="38" viewBox="0 0 426 38" fill="none" xmlns="http://www.w3.org/2000/svg">
<path d="M16.5938 8.65625C15.2396 7.32292 13.7396 6.65625 12.0938 6.65625C10.5312 6.65625 9.03125 7.25 7.59375 8.4375C5.78125 9.9375 4.53125 11.875 3.84375 14.25C3.59375 15.1042 3.46875 15.8125 3.46875 16.375C3.46875 16.9375 3.48958 17.375 3.53125 17.6875C3.53125 19.75 4.22917 21.3333 5.625 22.4375C6.9375 23.4583 8.61458 23.9688 10.6562 23.9688C13.4479 23.7396 16.125 22.6667 18.6875 20.75C19.3958 20.2083 20.1458 19.6875 20.9375 19.1875C21.2292 19.1875 21.5208 19.2292 21.8125 19.3125C22.125 19.3958 22.2812 19.6354 22.2812 20.0312C20.2188 21.8229 18.4792 23.1146 17.0625 23.9062C14.4375 25.3229 12.0625 26.0312 9.9375 26.0312C9.79167 26.0312 9.65625 26.0312 9.53125 26.0312C7.21875 26.0312 5.23958 25.3125 3.59375 23.875C1.84375 22.3542 0.96875 20.4583 0.96875 18.1875C0.96875 16.4792 1.27083 14.8438 1.875 13.2812C2.5 11.7188 3.34375 10.3438 4.40625 9.15625C5.48958 7.94792 6.76042 6.98958 8.21875 6.28125C9.69792 5.57292 11.2812 5.21875 12.9688 5.21875C14.4062 5.21875 15.3438 5.41667 15.7812 5.8125C16.3229 6.29167 16.5938 7.23958 16.5938 8.65625ZM24.5625 20.0625C24.5625 17.6042 25.625 15.625 27.75 14.125C29.4375 12.9375 31.4688 12.2188 33.8438 11.9688C33.9688 11.9688 34.2604 11.9688 34.7188 11.9688C35.1771 11.9688 35.7917 12.1042 36.5625 12.375C38.2708 12.9583 39.4375 13.9896 40.0625 15.4688C40.3125 16.0521 40.4375 16.5521 40.4375 16.9688C40.4375 17.3646 40.4271 17.6458 40.4062 17.8125C40.4062 20.4167 39.4167 22.4688 37.4375 23.9688C35.6042 25.3438 33.3125 26.0312 30.5625 26.0312C28.5833 26.0312 27.0833 25.5729 26.0625 24.6562C25.0625 23.7396 24.5625 22.2083 24.5625 20.0625ZM26.7188 20.8125C26.7188 22.1042 27.0625 22.9792 27.75 23.4375C28.2708 23.7708 29.1458 23.9375 30.375 23.9375C31.6042 23.9375 32.6875 23.8438 33.625 23.6562C34.5625 23.4688 35.3958 23.1458 36.125 22.6875C37.6875 21.6875 38.4688 20.1354 38.4688 18.0312C38.4688 16.7812 38.1354 15.7604 37.4688 14.9688C36.7396 14.1146 35.7812 13.6875 34.5938 13.6875C33.7812 13.8333 32.9583 13.9896 32.125 14.1562C31.3125 14.3229 30.5417 14.6458 29.8125 15.125C28.2292 16.1458 27.1979 18.0417 26.7188 20.8125ZM53.9688 19.1562C53.9688 16.6771 53.8333 14.8542 53.5625 13.6875C53.7292 13.375 53.4792 13.2188 52.8125 13.2188C52.1042 13.2188 51.1875 13.3958 50.0625 13.75C48.9375 14.1042 48.0208 14.4583 47.3125 14.8125C45.625 15.625 44.6875 16.4167 44.5 17.1875V25.6875H42.4062C42.1354 24.9792 42 22.9896 42 19.7188C42 16.8021 42.0521 14.6562 42.1562 13.2812C42.2812 11.9062 42.375 11.125 42.4375 10.9375C42.9792 10.5833 43.4167 10.4062 43.75 10.4062C44.2708 10.4062 44.5312 11.0208 44.5312 12.25C44.5312 12.7292 44.5 13.1979 44.4375 13.6562C44.3958 14.0938 44.375 14.3958 44.375 14.5625C47.75 12.0833 50.3646 10.8438 52.2188 10.8438C54.3229 10.8438 55.5208 12.5417 55.8125 15.9375C55.9375 17.125 56 18.7708 56 20.875L55.9688 23.3438C55.9688 24.2604 55.9896 25.1458 56.0312 26C55.8229 26.125 55.6562 26.1875 55.5312 26.1875C55.4688 26.1667 55.3333 26.1354 55.125 26.0938C54.9167 26.0521 54.6458 26.0208 54.3125 26C54.1042 25.1667 53.9896 24.3229 53.9688 23.4688C53.9479 22.5938 53.9375 21.7917 53.9375 21.0625L53.9688 19.1562ZM69.9688 19.1562C69.9688 16.6771 69.8333 14.8542 69.5625 13.6875C69.7292 13.375 69.4792 13.2188 68.8125 13.2188C68.1042 13.2188 67.1875 13.3958 66.0625 13.75C64.9375 14.1042 64.0208 14.4583 63.3125 14.8125C61.625 15.625 60.6875 16.4167 60.5 17.1875V25.6875H58.4062C58.1354 24.9792 58 22.9896 58 19.7188C58 16.8021 58.0521 14.6562 58.1562 13.2812C58.2812 11.9062 58.375 11.125 58.4375 10.9375C58.9792 10.5833 59.4167 10.4062 59.75 10.4062C60.2708 10.4062 60.5312 11.0208 60.5312 12.25C60.5312 12.7292 60.5 13.1979 60.4375 13.6562C60.3958 14.0938 60.375 14.3958 60.375 14.5625C63.75 12.0833 66.3646 10.8438 68.2188 10.8438C70.3229 10.8438 71.5208 12.5417 71.8125 15.9375C71.9375 17.125 72 18.7708 72 20.875L71.9688 23.3438C71.9688 24.2604 71.9896 25.1458 72.0312 26C71.8229 26.125 71.6562 26.1875 71.5312 26.1875C71.4688 26.1667 71.3333 26.1354 71.125 26.0938C70.9167 26.0521 70.6458 26.0208 70.3125 26C70.1042 25.1667 69.9896 24.3229 69.9688 23.4688C69.9479 22.5938 69.9375 21.7917 69.9375 21.0625L69.9688 19.1562ZM80.1562 23.8125C81.9896 23.8125 84.75 22.9792 88.4375 21.3125C88.6667 21.3125 88.8542 21.3958 89 21.5625C89.1458 21.7083 89.2188 21.8854 89.2188 22.0938C88.3854 23.5104 86.7917 24.6146 84.4375 25.4062C82.0833 26.1979 79.8854 26.3333 77.8438 25.8125C75.5312 25.2083 74.125 23.9062 73.625 21.9062C73.5833 21.5104 73.5625 20.9792 73.5625 20.3125C73.5625 19.6458 73.7292 18.7708 74.0625 17.6875C74.4167 16.5833 75.0104 15.5417 75.8438 14.5625C76.6771 13.5833 77.6562 12.8125 78.7812 12.25C79.9062 11.6875 81.1042 11.4062 82.375 11.4062C83.5833 11.4062 84.9375 11.8229 86.4375 12.6562C87.1458 13.0521 87.7083 13.5 88.125 14C88.5417 14.5 88.75 15.0104 88.75 15.5312C88.75 15.6771 88.7396 15.8229 88.7188 15.9688C88.6771 17.2396 88.0625 18.0417 86.875 18.375C86.3542 18.5208 85.75 18.5938 85.0625 18.5938L80.5625 18.4062C79.0625 18.4062 77.9167 18.7292 77.125 19.375C76.6667 19.7292 76.3438 20.2604 76.1562 20.9688C76.6771 22.8646 78.0104 23.8125 80.1562 23.8125ZM85.7188 14.1562C85.2604 13.8229 84.7812 13.5833 84.2812 13.4375C83.7812 13.2917 83.3646 13.2188 83.0312 13.2188C82.6979 13.2188 82.1562 13.3333 81.4062 13.5625C80.6562 13.7708 79.9896 14.0104 79.4062 14.2812C77.9688 14.9479 77.25 15.6458 77.25 16.375C78.9167 16.5208 80.1667 16.5938 81 16.5938C83.3125 16.5938 84.875 16.3958 85.6875 16C86.1875 15.7917 86.4375 15.5312 86.4375 15.2188C86.4375 14.8438 86.1979 14.4896 85.7188 14.1562ZM103.719 22.7188C104.573 22.3646 105.406 22.0417 106.219 21.75C107.031 21.4583 107.802 21.3125 108.531 21.3125C109.281 21.3125 109.656 21.5417 109.656 22C109.656 22.1042 109.625 22.2708 109.562 22.5C109.521 22.7083 109.24 22.9688 108.719 23.2812C108.219 23.5729 107.594 23.8542 106.844 24.125C106.115 24.3958 105.312 24.6458 104.438 24.875C103.562 25.1042 102.708 25.3021 101.875 25.4688C100.146 25.8229 98.9167 26 98.1875 26C97.4583 26 96.6667 25.9167 95.8125 25.75C94.9792 25.5833 94.1979 25.3125 93.4688 24.9375C91.7812 24.0625 90.9375 22.7708 90.9375 21.0625C90.9375 20.9375 90.9375 20.6875 90.9375 20.3125C90.9375 19.9375 91.0938 19.4062 91.4062 18.7188C91.7188 18.0104 92.1875 17.3125 92.8125 16.625C93.4375 15.9167 94.1667 15.2708 95 14.6875C96.75 13.4375 98.5833 12.625 100.5 12.25C101.167 12.1042 101.719 12.0312 102.156 12.0312C102.615 12.0312 102.99 12.0417 103.281 12.0625C103.573 12.0625 103.875 12.0833 104.188 12.125C104.5 12.1458 104.771 12.2188 105 12.3438C105.542 12.6146 105.812 13.1458 105.812 13.9375C105.812 14.4375 105.458 14.9271 104.75 15.4062C104.562 15.5312 104.396 15.6458 104.25 15.75C104.146 15.2708 104.01 14.8646 103.844 14.5312C103.677 14.1979 103.312 14.0312 102.75 14.0312C100.292 14.5521 98.1771 15.3333 96.4062 16.375C94.4062 17.5625 93.4062 18.8125 93.4062 20.125C93.4062 20.2708 93.4167 20.4271 93.4375 20.5938C93.4375 21.9271 93.9479 22.875 94.9688 23.4375C95.7396 23.8542 96.7292 24.0625 97.9375 24.0625C99.1667 24.0625 100.229 23.9271 101.125 23.6562C102.021 23.3646 102.885 23.0521 103.719 22.7188ZM116.062 23L116.125 18C116.125 17.2083 116.052 16.5312 115.906 15.9688H111.062L111 13.8125H115.688V5.75C115.75 5.5625 115.875 5.375 116.062 5.1875C116.354 4.89583 116.594 4.75 116.781 4.75C116.99 4.75 117.167 4.77083 117.312 4.8125C117.458 4.85417 117.615 5 117.781 5.25C118.115 6.625 118.281 8.69792 118.281 11.4688C118.281 12.1562 118.312 12.8333 118.375 13.5C119.042 13.4167 119.708 13.375 120.375 13.375C120.375 13.375 120.917 13.375 122 13.375C122.396 13.375 122.76 13.3542 123.094 13.3125L123 15.5625L118.438 15.4375L118.594 26.2188C118.219 26.3854 117.896 26.4688 117.625 26.4688C116.583 26.4688 116.062 25.3125 116.062 23ZM148.969 17.375C148.51 18.8958 148.125 20.3021 147.812 21.5938C147.521 22.8854 147.229 23.9583 146.938 24.8125C146.479 26.0417 145.958 26.6562 145.375 26.6562C145.062 26.6562 144.708 26.5104 144.312 26.2188C143.354 25.1979 142 22.9375 140.25 19.4375C138.542 16.0208 137.688 13.8854 137.688 13.0312C137.688 12.6562 137.802 12.4271 138.031 12.3438C138.26 12.2396 138.521 12.2292 138.812 12.3125C139.521 12.5208 140.021 12.8438 140.312 13.2812C140.458 13.4896 140.635 13.8542 140.844 14.375L141.625 16.3125C142.5 18.5 143.365 20.5 144.219 22.3125C144.677 21.6042 145.115 20.6875 145.531 19.5625L146.5 16.875C147.333 14.5208 148.083 13.3229 148.75 13.2812C149.271 12.9479 150.833 14.7917 153.438 18.8125C154.542 20.5208 155.229 21.5417 155.5 21.875C155.688 21.875 155.906 21.25 156.156 20C156.427 18.75 156.656 17.6979 156.844 16.8438C157.052 15.9688 157.302 15.1562 157.594 14.4062C158.281 12.6562 159.073 11.7812 159.969 11.7812C160.26 11.7812 160.458 11.8854 160.562 12.0938C160.688 12.2812 160.75 12.4375 160.75 12.5625C160.75 12.6875 160.75 12.7812 160.75 12.8438C160.5 13.5521 160.24 14.3646 159.969 15.2812C159.698 16.1771 159.406 17.1042 159.094 18.0625C158.802 19 158.5 19.9375 158.188 20.875C157.896 21.7917 157.604 22.625 157.312 23.375C156.625 25 156.052 25.875 155.594 26C155.24 26.1667 154.667 25.7604 153.875 24.7812C153.521 24.3229 153.146 23.7812 152.75 23.1562C152.354 22.5312 151.938 21.8854 151.5 21.2188C150.438 19.5521 149.594 18.2708 148.969 17.375ZM165.781 11.3125C166.052 15.2083 166.281 19.7188 166.469 24.8438C166.344 25.4896 165.844 25.8125 164.969 25.8125C164.74 25.8125 164.5 25.7708 164.25 25.6875C164.021 25.5833 163.875 25.4479 163.812 25.2812V11.3125H165.781ZM162.875 7.0625C162.875 6.33333 163.302 5.96875 164.156 5.96875C164.719 5.96875 165.177 6.09375 165.531 6.34375C165.594 6.57292 165.625 6.80208 165.625 7.03125C165.625 7.23958 165.542 7.44792 165.375 7.65625C165.208 7.86458 164.958 7.96875 164.625 7.96875C164.292 7.96875 163.958 7.89583 163.625 7.75C163.292 7.58333 163.042 7.35417 162.875 7.0625ZM172.531 23L172.594 18C172.594 17.2083 172.521 16.5312 172.375 15.9688H167.531L167.469 13.8125H172.156V5.75C172.219 5.5625 172.344 5.375 172.531 5.1875C172.823 4.89583 173.062 4.75 173.25 4.75C173.458 4.75 173.635 4.77083 173.781 4.8125C173.927 4.85417 174.083 5 174.25 5.25C174.583 6.625 174.75 8.69792 174.75 11.4688C174.75 12.1562 174.781 12.8333 174.844 13.5C175.51 13.4167 176.177 13.375 176.844 13.375C176.844 13.375 177.385 13.375 178.469 13.375C178.865 13.375 179.229 13.3542 179.562 13.3125L179.469 15.5625L174.906 15.4375L175.062 26.2188C174.688 26.3854 174.365 26.4688 174.094 26.4688C173.052 26.4688 172.531 25.3125 172.531 23ZM195.438 25.5625C195.25 25.9167 194.76 26.0938 193.969 26.0938C193.198 26.0938 192.812 25.8125 192.812 25.25C192.812 22.7917 192.76 21.1042 192.656 20.1875C192.469 18.1667 192.073 17.0833 191.469 16.9375C189.969 16.6458 188.74 16.5 187.781 16.5C186.844 16.5 186.062 16.7917 185.438 17.375C184.833 17.9375 184.365 18.8854 184.031 20.2188C183.719 21.5312 183.49 23.3854 183.344 25.7812H180.938C180.979 24.5938 181 23.4896 181 22.4688C181 21.4479 180.979 20.2396 180.938 18.8438C180.896 17.4271 180.844 15.8854 180.781 14.2188C180.677 12.3021 180.625 10.6875 180.625 9.375C180.625 8.04167 180.708 6.82292 180.875 5.71875C181.083 5.32292 181.385 5.125 181.781 5.125C182.26 5.125 182.635 5.30208 182.906 5.65625C183.177 5.98958 183.323 6.29167 183.344 6.5625L183.188 11.7188C183.188 13.6562 183.281 15.1042 183.469 16.0625C185.344 14.8125 187.281 14.1875 189.281 14.1875C189.927 14.1875 190.615 14.2396 191.344 14.3438C192.906 15.1562 193.927 16.0208 194.406 16.9375C194.635 17.4167 194.781 17.9271 194.844 18.4688C194.906 19.0104 194.948 19.625 194.969 20.3125C195.094 22.6875 195.25 24.4375 195.438 25.5625ZM225 25.5C225 25.875 224.677 26.0625 224.031 26.0625C223.719 26.0625 223.427 26.0208 223.156 25.9375C222.906 25.8333 222.75 25.75 222.688 25.6875L223 21.6875C221.083 23.3333 219.688 24.3646 218.812 24.7812C217.438 25.4688 216.031 25.8125 214.594 25.8125C214.323 25.8125 214.042 25.8021 213.75 25.7812C210.708 25.4479 209.188 23.5 209.188 19.9375C209.188 18.3125 209.604 15.5521 210.438 11.6562C210.708 10.4479 210.885 9.34375 210.969 8.34375C211.031 8.32292 211.167 8.3125 211.375 8.3125C211.375 8.3125 211.5 8.3125 211.75 8.3125C211.854 8.29167 211.948 8.28125 212.031 8.28125C212.698 8.28125 213.031 8.78125 213.031 9.78125C213.031 10.4688 212.896 11.3229 212.625 12.3438C211.792 15.6979 211.375 18.0208 211.375 19.3125C211.375 20.6667 211.729 21.7292 212.438 22.5C212.896 23 213.615 23.3021 214.594 23.4062C214.719 23.4062 214.844 23.4062 214.969 23.4062C218.365 23.4062 220.594 21.7708 221.656 18.5C222.281 16.5833 222.646 14.2708 222.75 11.5625C222.812 10.3125 222.865 9.07292 222.906 7.84375C223.135 7.21875 223.448 6.90625 223.844 6.90625C224.24 6.90625 224.677 7.08333 225.156 7.4375C225.219 8.64583 225.25 9.83333 225.25 11L224.938 22.9375C224.938 23.7917 224.958 24.6458 225 25.5ZM238.062 17.9375C240.354 17.9375 241.5 18.5208 241.5 19.6875C241.5 20.5625 240.865 21.5833 239.594 22.75C237.698 24.4792 235.146 25.8646 231.938 26.9062C231.792 26.9062 231.625 26.7604 231.438 26.4688C231.271 26.1771 231.135 25.9583 231.031 25.8125C230.948 25.6458 230.885 25.5417 230.844 25.5C233.24 24.7083 235.208 23.75 236.75 22.625C237.792 21.875 238.312 21.2604 238.312 20.7812C238.312 20.3021 237.698 20.0625 236.469 20.0625C235.24 20.0625 233.438 20.3542 231.062 20.9375C229.979 20.8958 229.042 20.5104 228.25 19.7812C227.562 19.1354 227.219 18.4896 227.219 17.8438C227.219 17.1771 227.406 16.5729 227.781 16.0312C228.156 15.4688 228.656 14.9479 229.281 14.4688C229.906 13.9896 230.635 13.5521 231.469 13.1562C233.51 12.1771 235.625 11.6875 237.812 11.6875C238.458 11.6875 239.083 11.75 239.688 11.875C240.188 11.875 240.479 12.0938 240.562 12.5312C240.646 12.9688 240.688 13.6875 240.688 14.6875C239.458 14.125 238.073 13.8438 236.531 13.8438C234.615 13.8438 233.031 14.2292 231.781 15C230.49 15.75 229.823 16.7292 229.781 17.9375C229.781 18.5208 230.208 18.8125 231.062 18.8125L233.344 18.5625C235.302 18.1458 236.875 17.9375 238.062 17.9375ZM268.531 20.8125C266.969 23.2708 264.885 24.7917 262.281 25.375C261.677 25.5 261.125 25.5625 260.625 25.5625C260.146 25.5625 259.74 25.5625 259.406 25.5625C259.094 25.5417 258.74 25.4896 258.344 25.4062C257.948 25.3229 257.583 25.1875 257.25 25C256.479 24.5625 256.094 23.9479 256.094 23.1562C256.01 22.7812 255.969 22.3646 255.969 21.9062C255.969 21.4271 256.073 20.8021 256.281 20.0312C256.49 19.2604 256.865 18.4271 257.406 17.5312C257.969 16.6354 258.646 15.8125 259.438 15.0625C261.083 13.4792 262.865 12.4583 264.781 12C265.344 11.875 265.854 11.8125 266.312 11.8125C266.792 11.8125 267.219 11.8438 267.594 11.9062C268.802 11.9062 269.615 12.7292 270.031 14.375C270.302 15.4167 270.458 16.875 270.5 18.75C270.562 20.6042 270.615 22.0417 270.656 23.0625C270.719 24.0625 270.854 24.9792 271.062 25.8125H269.219C269.135 25.25 269.073 24.75 269.031 24.3125C268.99 23.875 268.948 23.4688 268.906 23.0938C268.802 22.2188 268.677 21.4583 268.531 20.8125ZM268.406 15.9688C268.406 14.7604 267.812 14.1562 266.625 14.1562C266.479 14.1354 266.333 14.125 266.188 14.125C264.667 14.125 263.062 14.8542 261.375 16.3125C260.583 16.9792 259.906 17.7292 259.344 18.5625C258.51 19.75 258.094 20.8125 258.094 21.75C258.094 22.9792 258.802 23.7083 260.219 23.9375C262.094 23.8958 263.885 23.0417 265.594 21.375C266.323 20.6458 266.927 19.8542 267.406 19C268.073 17.8542 268.406 16.8438 268.406 15.9688ZM284.719 19.1562C284.719 16.6771 284.583 14.8542 284.312 13.6875C284.479 13.375 284.229 13.2188 283.562 13.2188C282.854 13.2188 281.938 13.3958 280.812 13.75C279.688 14.1042 278.771 14.4583 278.062 14.8125C276.375 15.625 275.438 16.4167 275.25 17.1875V25.6875H273.156C272.885 24.9792 272.75 22.9896 272.75 19.7188C272.75 16.8021 272.802 14.6562 272.906 13.2812C273.031 11.9062 273.125 11.125 273.188 10.9375C273.729 10.5833 274.167 10.4062 274.5 10.4062C275.021 10.4062 275.281 11.0208 275.281 12.25C275.281 12.7292 275.25 13.1979 275.188 13.6562C275.146 14.0938 275.125 14.3958 275.125 14.5625C278.5 12.0833 281.115 10.8438 282.969 10.8438C285.073 10.8438 286.271 12.5417 286.562 15.9375C286.688 17.125 286.75 18.7708 286.75 20.875L286.719 23.3438C286.719 24.2604 286.74 25.1458 286.781 26C286.573 26.125 286.406 26.1875 286.281 26.1875C286.219 26.1667 286.083 26.1354 285.875 26.0938C285.667 26.0521 285.396 26.0208 285.062 26C284.854 25.1667 284.74 24.3229 284.719 23.4688C284.698 22.5938 284.688 21.7917 284.688 21.0625L284.719 19.1562ZM303.312 0.90625C303.312 2.90625 303.25 4.86458 303.125 6.78125C303.021 8.67708 302.917 10.5417 302.812 12.375C302.729 14.1875 302.688 16.125 302.688 18.1875C302.688 20.2292 302.833 22.3958 303.125 24.6875C303.125 25.1667 303.031 25.5104 302.844 25.7188C302.677 25.9271 302.385 26.0312 301.969 26.0312C300.99 26.0312 300.5 25.2188 300.5 23.5938V22.5625C297.542 24.7708 295.042 25.875 293 25.875C292.188 25.875 291.354 25.6771 290.5 25.2812C289.667 24.8854 288.875 24.0833 288.125 22.875C288.021 22.375 287.969 21.8646 287.969 21.3438C287.969 20.8229 288.062 20.1979 288.25 19.4688C288.458 18.7188 288.865 17.9479 289.469 17.1562C290.094 16.3646 290.844 15.6667 291.719 15.0625C293.635 13.7708 295.708 13.125 297.938 13.125C298.896 13.125 299.812 13.2708 300.688 13.5625C300.688 13.1875 300.708 12.5312 300.75 11.5938C300.812 10.6562 300.875 9.66667 300.938 8.625C301.062 5.91667 301.146 4.32292 301.188 3.84375C301.229 3.34375 301.281 2.92708 301.344 2.59375C301.427 2.23958 301.542 1.9375 301.688 1.6875C302 1.16667 302.542 0.90625 303.312 0.90625ZM290.25 21.0938C290.25 22.7396 290.844 23.5625 292.031 23.5625C292.219 23.5625 292.427 23.5417 292.656 23.5C293.51 23.5 294.562 23.25 295.812 22.75C298.188 21.8125 299.635 21 300.156 20.3125V16.1562C300.156 15.4271 299.562 15.0625 298.375 15.0625C298.229 15.0417 298.031 15.0312 297.781 15.0312C297.552 15.0312 297.188 15.0833 296.688 15.1875C296.188 15.2917 295.625 15.4792 295 15.75C294.375 16.0208 293.76 16.3542 293.156 16.75C291.885 17.6042 291.01 18.6042 290.531 19.75C290.344 20.1875 290.25 20.6354 290.25 21.0938ZM327.938 6.15625C330.021 6.15625 331.406 6.29167 332.094 6.5625V8.09375C331.531 8.17708 330.76 8.22917 329.781 8.25C328.802 8.25 327.76 8.26042 326.656 8.28125C323.573 8.34375 321.469 8.5 320.344 8.75C319.99 10.4167 319.823 11.5521 319.844 12.1562C319.865 12.7604 319.885 13.2292 319.906 13.5625C319.99 14.375 320.031 15.3333 320.031 16.4375C321.448 16.4375 323.062 16.3125 324.875 16.0625C326.708 15.8125 328.125 15.6354 329.125 15.5312C330.125 15.4062 331.156 15.3438 332.219 15.3438V17.0625L320.25 18.5625L320.438 23.6875C322.5 23.6875 324.604 23.5938 326.75 23.4062C328.917 23.1979 330.552 23.0521 331.656 22.9688C332.781 22.8646 333.969 22.8125 335.219 22.8125C335.219 23.2292 335.094 23.625 334.844 24C334.344 24.6667 333.896 24.8646 333.5 24.5938C329.833 24.9896 326.552 25.3021 323.656 25.5312C320.781 25.7604 318.844 25.9167 317.844 26L317.969 6.0625C318.51 6.22917 319.51 6.3125 320.969 6.3125L327.938 6.15625ZM336.656 25.0625C337.677 24.0417 338.708 22.875 339.75 21.5625C340.792 20.25 341.427 19.375 341.656 18.9375L339.031 16.0625C338.698 15.7083 338.375 15.3542 338.062 15C337.75 14.6458 337.469 14.3333 337.219 14.0625C336.969 13.7917 336.771 13.5625 336.625 13.375L336.406 13.125L338.219 11.1875C339.156 12.3333 339.844 13.2083 340.281 13.8125C340.74 14.3958 341.104 14.8646 341.375 15.2188C341.833 15.8021 342.5 16.5208 343.375 17.375C343.667 16.9583 344.188 16.2083 344.938 15.125C346.188 13.2708 347.188 11.8958 347.938 11C348.417 11 348.802 11.1667 349.094 11.5C349.385 11.8333 349.531 12.1458 349.531 12.4375C348.99 13.6042 348.208 14.8333 347.188 16.125C346.812 16.5833 346.469 17.0312 346.156 17.4688C345.844 17.8854 345.594 18.3438 345.406 18.8438C346.677 19.7396 348.198 21.2604 349.969 23.4062C350.365 23.8854 350.646 24.25 350.812 24.5C350.812 24.6458 350.698 24.8646 350.469 25.1562C350.115 25.6562 349.802 25.9688 349.531 26.0938C349.135 25.9062 348.719 25.5729 348.281 25.0938C347.865 24.5938 347.417 24.0521 346.938 23.4688C346.458 22.8854 345.958 22.3021 345.438 21.7188C344.938 21.1354 344.406 20.6562 343.844 20.2812C343.365 20.8229 342.698 21.6042 341.844 22.625C340.281 24.5 339.24 25.625 338.719 26C338.323 26.0833 337.76 25.8958 337.031 25.4375C336.844 25.3333 336.719 25.2083 336.656 25.0625ZM354.75 13.4688C357.583 12.4896 360.031 12 362.094 12C364.719 12 366.469 12.6875 367.344 14.0625C367.74 14.7083 367.938 15.4062 367.938 16.1562C367.938 17.1979 367.604 18.2708 366.938 19.375C366.292 20.4792 365.427 21.4792 364.344 22.375C361.823 24.4375 358.76 25.7188 355.156 26.2188C355.156 26.4479 355.156 26.8125 355.156 27.3125C355.177 27.8333 355.188 28.4062 355.188 29.0312C355.208 29.6562 355.219 30.3229 355.219 31.0312C355.24 31.7396 355.26 32.4167 355.281 33.0625C355.344 34.6667 355.385 35.5833 355.406 35.8125C355.448 36.0417 355.469 36.2292 355.469 36.375C355.469 36.8958 355.302 37.2812 354.969 37.5312C354.635 37.8021 354.198 37.9375 353.656 37.9375C353.552 37.9375 353.448 37.9375 353.344 37.9375L352.844 12.8125C353.031 12.5417 353.281 12.4167 353.594 12.4375C353.906 12.4583 354.156 12.5417 354.344 12.6875C354.531 12.8333 354.667 13.0938 354.75 13.4688ZM363.875 14.5625C363.188 14.2083 362.448 14.0312 361.656 14.0312C360.885 14.0312 360.115 14.1042 359.344 14.25C357.594 14.5833 356.302 15.3229 355.469 16.4688C355.094 17.0104 354.906 17.6771 354.906 18.4688C354.906 18.5521 354.906 18.6354 354.906 18.7188V24.125C359.198 23.1667 362.24 21.8333 364.031 20.125C365.073 19.1458 365.594 18.1354 365.594 17.0938C365.594 15.9896 365.021 15.1458 363.875 14.5625ZM370.125 13.875C370.083 12.75 370.042 11.75 370 10.875C369.958 9.97917 369.927 9.32292 369.906 8.90625C369.906 8.46875 369.74 7.41667 369.406 5.75C369.594 5.5 369.771 5.26042 369.938 5.03125C370.125 4.80208 370.385 4.6875 370.719 4.6875C371.448 4.6875 372.01 7.76042 372.406 13.9062C372.615 17.4688 372.719 21.0312 372.719 24.5938C372.719 25.5521 372.052 26.0312 370.719 26.0312L370.469 26C370.469 24.9167 370.438 23.5312 370.375 21.8438C370.312 20.1562 370.26 18.6875 370.219 17.4375C370.198 16.1875 370.167 15 370.125 13.875ZM375.375 20.0625C375.375 17.6042 376.438 15.625 378.562 14.125C380.25 12.9375 382.281 12.2188 384.656 11.9688C384.781 11.9688 385.073 11.9688 385.531 11.9688C385.99 11.9688 386.604 12.1042 387.375 12.375C389.083 12.9583 390.25 13.9896 390.875 15.4688C391.125 16.0521 391.25 16.5521 391.25 16.9688C391.25 17.3646 391.24 17.6458 391.219 17.8125C391.219 20.4167 390.229 22.4688 388.25 23.9688C386.417 25.3438 384.125 26.0312 381.375 26.0312C379.396 26.0312 377.896 25.5729 376.875 24.6562C375.875 23.7396 375.375 22.2083 375.375 20.0625ZM377.531 20.8125C377.531 22.1042 377.875 22.9792 378.562 23.4375C379.083 23.7708 379.958 23.9375 381.188 23.9375C382.417 23.9375 383.5 23.8438 384.438 23.6562C385.375 23.4688 386.208 23.1458 386.938 22.6875C388.5 21.6875 389.281 20.1354 389.281 18.0312C389.281 16.7812 388.948 15.7604 388.281 14.9688C387.552 14.1146 386.594 13.6875 385.406 13.6875C384.594 13.8333 383.771 13.9896 382.938 14.1562C382.125 14.3229 381.354 14.6458 380.625 15.125C379.042 16.1458 378.01 18.0417 377.531 20.8125ZM407.938 14.5938C407.062 13.9688 405.938 13.6562 404.562 13.6562C403.271 13.6562 402.073 13.8958 400.969 14.375C398.885 15.25 397.458 16.375 396.688 17.75C396.354 18.375 396.188 19.0417 396.188 19.75C396.188 19.875 396.188 20.2292 396.188 20.8125C396.188 21.375 396.292 22.1458 396.5 23.125C396.708 24.0833 396.812 25.0625 396.812 26.0625C396.375 26.0833 396.021 26.1354 395.75 26.2188C395.479 26.3021 395.25 26.3438 395.062 26.3438C394.875 26.3438 394.708 26.2604 394.562 26.0938C394.438 25.9271 394.292 25.6042 394.125 25.125C394.104 25 394.062 24.6458 394 24.0625C393.938 23.4792 393.854 22.7708 393.75 21.9375C393.667 21.1042 393.562 20.1979 393.438 19.2188C393.333 18.2188 393.229 17.2396 393.125 16.2812C392.896 14.1979 392.719 12.6667 392.594 11.6875C392.594 11.1875 392.958 10.9375 393.688 10.9375C394.125 10.9375 394.469 11.125 394.719 11.5C394.969 11.8542 395.167 12.2708 395.312 12.75C395.458 13.2083 395.552 13.6667 395.594 14.125C395.656 14.5833 395.708 14.9062 395.75 15.0938C398.5 12.6354 401.917 11.4062 406 11.4062C406.458 11.4062 406.938 11.4167 407.438 11.4375C407.562 11.4167 407.719 11.4062 407.906 11.4062C408.094 11.4062 408.281 11.5312 408.469 11.7812C408.698 12.0729 408.812 12.4271 408.812 12.8438C408.812 13.8854 408.521 14.4688 407.938 14.5938ZM416.625 23.8125C418.458 23.8125 421.219 22.9792 424.906 21.3125C425.135 21.3125 425.323 21.3958 425.469 21.5625C425.615 21.7083 425.688 21.8854 425.688 22.0938C424.854 23.5104 423.26 24.6146 420.906 25.4062C418.552 26.1979 416.354 26.3333 414.312 25.8125C412 25.2083 410.594 23.9062 410.094 21.9062C410.052 21.5104 410.031 20.9792 410.031 20.3125C410.031 19.6458 410.198 18.7708 410.531 17.6875C410.885 16.5833 411.479 15.5417 412.312 14.5625C413.146 13.5833 414.125 12.8125 415.25 12.25C416.375 11.6875 417.573 11.4062 418.844 11.4062C420.052 11.4062 421.406 11.8229 422.906 12.6562C423.615 13.0521 424.177 13.5 424.594 14C425.01 14.5 425.219 15.0104 425.219 15.5312C425.219 15.6771 425.208 15.8229 425.188 15.9688C425.146 17.2396 424.531 18.0417 423.344 18.375C422.823 18.5208 422.219 18.5938 421.531 18.5938L417.031 18.4062C415.531 18.4062 414.385 18.7292 413.594 19.375C413.135 19.7292 412.812 20.2604 412.625 20.9688C413.146 22.8646 414.479 23.8125 416.625 23.8125ZM422.188 14.1562C421.729 13.8229 421.25 13.5833 420.75 13.4375C420.25 13.2917 419.833 13.2188 419.5 13.2188C419.167 13.2188 418.625 13.3333 417.875 13.5625C417.125 13.7708 416.458 14.0104 415.875 14.2812C414.438 14.9479 413.719 15.6458 413.719 16.375C415.385 16.5208 416.635 16.5938 417.469 16.5938C419.781 16.5938 421.344 16.3958 422.156 16C422.656 15.7917 422.906 15.5312 422.906 15.2188C422.906 14.8438 422.667 14.4896 422.188 14.1562Z" fill="white"/>
</svg>
